<svg width="260" height="63" viewBox="0 0 260 63" fill="none" xmlns="http://www.w3.org/2000/svg">
<path d="M18.7803 13.0741C22.3265 10.6285 26.5238 9.24601 30.8722 9.0914C35.2205 8.93687 39.5365 10.0167 43.3058 12.2023C47.0751 14.3879 50.1388 17.5871 52.1317 21.4186C54.1247 25.2502 54.963 29.5525 54.5467 33.813C54.1303 38.0735 52.4769 42.1125 49.7835 45.4488C47.0901 48.7849 43.4702 51.2776 39.3552 52.6298C35.2402 53.982 30.8036 54.1367 26.5741 53.0754C22.3446 52.0141 18.5005 49.7815 15.4998 46.6438L17.6441 44.6597C20.2536 47.3883 23.5965 49.3298 27.2746 50.2527C30.9528 51.1757 34.811 51.0412 38.3895 49.8653C41.968 48.6894 45.116 46.5217 47.4583 43.6204C49.8006 40.7191 51.2385 37.2067 51.6005 33.5016C51.9625 29.7965 51.2336 26.0551 49.5004 22.723C47.7673 19.391 45.103 16.6089 41.825 14.7082C38.5472 12.8076 34.7939 11.8685 31.0124 12.0029C27.231 12.1373 23.5809 13.3396 20.4969 15.4664L18.7803 13.0741Z" fill="black"/>
<path d="M55.931 30.7725C55.931 35.3369 54.5548 39.7987 51.9765 43.5939C49.3982 47.389 45.7336 50.347 41.446 52.0937C37.1584 53.8404 32.4405 54.2974 27.8889 53.4069C23.3372 52.5165 19.1563 50.3185 15.8747 47.0911C12.5932 43.8635 10.3584 39.7514 9.45299 35.2748C8.54766 30.7981 9.01233 26.1579 10.7883 21.9409C12.5642 17.724 15.5718 14.1197 19.4305 11.5839C23.2892 9.04806 27.8258 7.69457 32.4666 7.69457V13.2267C28.9382 13.2267 25.4891 14.2558 22.5554 16.1838C19.6217 18.1117 17.3352 20.8519 15.9849 24.058C14.6347 27.2641 14.2814 30.7919 14.9697 34.1955C15.6581 37.599 17.3571 40.7254 19.852 43.1792C22.3469 45.633 25.5257 47.3041 28.9862 47.9811C32.4468 48.6581 36.0337 48.3107 39.2935 46.9826C42.5532 45.6547 45.3394 43.4057 47.2996 40.5204C49.2599 37.635 50.3062 34.2427 50.3062 30.7725H55.931Z" fill="#8E0532"/>
<mask id="mask0_102_5" style="mask-type:luminance" maskUnits="userSpaceOnUse" x="24" y="17" width="16" height="24">
<path d="M39.1535 17.8492H24.4882V40.9271H39.1535V17.8492Z" fill="white"/>
</mask>
<g mask="url(#mask0_102_5)">
<path fill-rule="evenodd" clip-rule="evenodd" d="M35.1273 23.1556L35.1257 23.148C35.1243 23.141 35.1221 23.1298 35.1192 23.1146C35.1134 23.0841 35.105 23.0377 35.095 22.9777C35.075 22.8575 35.0491 22.6837 35.0264 22.4744C34.9806 22.0517 34.9501 21.5033 35.0008 20.967C35.0526 20.4181 35.1831 19.955 35.4002 19.646C35.5884 19.3782 35.8548 19.1991 36.337 19.1991C36.6423 19.1991 36.852 19.2687 37.0057 19.3627C37.1633 19.4592 37.3013 19.6059 37.4202 19.8134C37.6657 20.2422 37.7834 20.848 37.8328 21.4963C37.829 22.1526 37.7384 22.8035 37.5647 23.4269C37.0742 24.7476 37.0385 26.2239 37.4632 27.5714C37.4712 27.5969 37.4807 27.6218 37.4918 27.6462C37.5708 27.8199 37.6203 28.0137 37.6345 28.2157C37.6368 28.2479 37.6415 28.2798 37.6485 28.3113C37.8789 29.3467 37.811 30.4386 37.4576 31.4233C37.1042 32.408 36.4899 33.2181 35.7244 33.7504C35.5656 33.8609 35.4619 34.03 35.4382 34.217C35.4146 34.404 35.4731 34.5921 35.5998 34.7359C35.8284 34.9954 35.8963 35.2212 35.9039 35.4086C35.9121 35.6084 35.8529 35.817 35.7447 36.0251C35.6368 36.2329 35.4931 36.4147 35.3706 36.5478C35.3106 36.6131 35.2587 36.6634 35.2235 36.6961C35.206 36.7122 35.1928 36.7238 35.1852 36.7304L35.1788 36.7359C35.1788 36.736 35.1789 36.7359 35.1788 36.7359C35.1786 36.7362 35.1782 36.7364 35.178 36.7366C34.906 36.9615 34.8547 37.3456 35.0539 37.6285C35.0556 37.632 35.0582 37.6378 35.061 37.6458C35.0701 37.6715 35.0827 37.7228 35.0687 37.7996C35.0434 37.9387 34.887 38.365 33.8793 38.9369C33.0277 39.4202 31.8627 39.3903 30.6085 39.0649C29.3779 38.7456 28.2113 38.1806 27.4777 37.7919C27.04 37.5601 26.8057 37.0317 26.7247 36.3628C26.6869 36.0499 26.6892 35.7533 26.7019 35.5327C26.7081 35.4234 26.7167 35.3353 26.7234 35.2761C26.7268 35.2465 26.7298 35.2244 26.7316 35.2108L26.7337 35.1966C26.7337 35.1965 26.7337 35.1968 26.7337 35.1966C26.7337 35.1965 26.7339 35.1955 26.7339 35.1954C26.7339 35.1953 26.7339 35.1955 26.7339 35.1954C26.7678 34.9809 26.6927 34.7631 26.5318 34.6108C26.4929 34.574 26.4261 34.481 26.3617 34.2919C26.2995 34.1095 26.2538 33.8801 26.2258 33.6191C26.2175 33.5422 26.2109 33.4642 26.2059 33.3857C26.4745 33.3974 26.738 33.2598 26.8667 33.014C27.0416 32.6802 26.9019 32.2734 26.5546 32.1053C26.4394 32.0495 26.3279 31.9738 26.2246 31.8786C26.1795 31.6876 26.0495 31.5244 25.8709 31.4323C25.851 31.3772 25.8403 31.3146 25.8419 31.2496C25.8424 31.2271 25.8417 31.2047 25.84 31.1822C25.8171 30.8966 26.0123 30.5796 26.4044 30.2617C26.5838 30.1163 26.77 29.9997 26.9137 29.9189C26.9847 29.879 27.0431 29.8491 27.082 29.8299C27.1015 29.8203 27.1159 29.8134 27.1245 29.8095L27.1324 29.8058C27.1322 29.8059 27.1317 29.8061 26.8379 29.1912C26.5442 28.5763 26.544 28.5764 26.5437 28.5765L26.5423 28.5772L26.5398 28.5783L26.5327 28.5815C26.5307 28.5824 26.5284 28.5834 26.526 28.5845C26.5217 28.5865 26.5167 28.5888 26.511 28.5914C26.4933 28.5997 26.4691 28.6111 26.4396 28.6257C26.3806 28.6548 26.2991 28.6967 26.2029 28.7508C26.1331 28.79 26.0545 28.8363 25.9701 28.8895C25.9393 28.7463 25.9238 28.6 25.9238 28.4535C25.9238 28.0853 26.0217 27.7182 26.2143 27.4C26.2079 27.4129 26.2017 27.4259 26.1956 27.439L26.8379 27.7157L26.2374 27.3627C26.2296 27.3751 26.2218 27.3875 26.2143 27.4C26.5578 26.7022 27.2579 26.2835 27.944 26.0239C28.6591 25.7533 29.4877 25.6063 30.2474 25.5252C31.0136 25.4434 31.7451 25.4253 32.2821 25.4271C32.5515 25.428 32.7743 25.434 32.9307 25.4398C32.9855 25.4418 33.0322 25.4438 33.07 25.4456C33.0453 25.4529 33.0199 25.4591 32.9937 25.4643L33.1373 26.1268L33.0913 26.802L33.0895 26.8018L33.0801 26.8013C33.0713 26.8008 33.0576 26.8 33.0393 26.7991C33.0026 26.7972 32.9476 26.7947 32.8764 26.792C32.7341 26.7868 32.5279 26.7812 32.2771 26.7804C31.7737 26.7787 31.099 26.7959 30.4028 26.8702C29.7001 26.9452 29.0102 27.0748 28.4597 27.2831C27.893 27.4975 27.5938 27.7491 27.4803 27.9925C27.468 28.0188 27.4541 28.0443 27.4384 28.0688C27.3731 28.1716 27.3317 28.3064 27.3317 28.4535C27.3317 28.6006 27.3731 28.7354 27.4384 28.8381C27.5434 29.0031 27.57 29.2033 27.5113 29.3884C27.4528 29.5732 27.315 29.725 27.1324 29.8058C27.1323 29.8059 27.1325 29.8058 27.1324 29.8058L26.8379 29.1912L26.2374 29.5444C26.1092 29.3427 26.0198 29.1202 25.9701 28.8895C25.8238 28.9816 25.6604 29.0946 25.4966 29.2273C25.0194 29.6143 24.3743 30.307 24.4339 31.2529C24.4328 31.4727 24.4714 31.6925 24.5496 31.8996C24.6107 32.0612 24.6957 32.2148 24.8038 32.3533C24.7765 32.7781 24.7737 33.2773 24.8254 33.758C24.8598 34.0787 24.9203 34.4098 25.0238 34.7132C25.0898 34.9069 25.1802 35.1098 25.3075 35.296C25.3034 35.3453 25.2995 35.3998 25.2961 35.4586C25.2806 35.731 25.2767 36.1083 25.3263 36.519C25.4204 37.2971 25.736 38.4145 26.7982 38.9772C27.5643 39.383 28.8476 40.0097 30.2416 40.3714C31.6122 40.727 33.2469 40.8673 34.5951 40.1021C35.7873 39.4256 36.3308 38.7169 36.4555 38.0332C36.4982 37.7989 36.4865 37.5903 36.451 37.4161C36.6214 37.2274 36.8335 36.9585 37.0043 36.6297C37.1836 36.2845 37.3307 35.8475 37.3107 35.3557C37.2983 35.0497 37.2217 34.7408 37.0691 34.4383C37.8374 33.7584 38.4279 32.8692 38.7885 31.8646C39.2213 30.6586 39.3065 29.3336 39.0352 28.0739C39.0072 27.7533 38.9281 27.4386 38.7998 27.1445C38.4711 26.0744 38.5068 24.9004 38.8987 23.8602C38.9053 23.8428 38.9111 23.8251 38.9162 23.8072C39.1295 23.052 39.2388 22.2656 39.2407 21.475C39.2408 21.4586 39.2402 21.4421 39.239 21.4257C39.1873 20.7215 39.0549 19.8616 38.6535 19.1609C38.4475 18.8009 38.1606 18.4653 37.762 18.2213C37.3594 17.9748 36.8817 17.8458 36.337 17.8458C35.3695 17.8458 34.6734 18.2625 34.2335 18.8885C33.8226 19.4733 33.6594 20.2019 33.5986 20.8447C33.5368 21.5001 33.5751 22.1435 33.6261 22.6146C33.6519 22.8522 33.6815 23.0508 33.7048 23.1913C33.7165 23.2616 33.7267 23.3177 33.7342 23.3571C33.7377 23.3756 33.7406 23.3905 33.7427 23.4014L33.7434 23.4057C33.7452 23.4189 33.7479 23.4402 33.7511 23.4688C33.7574 23.5259 33.7652 23.6107 33.7699 23.7145C33.7795 23.9253 33.776 24.1988 33.7299 24.472C33.6377 25.0184 33.4296 25.3398 33.07 25.4456C33.0862 25.4464 33.1008 25.4471 33.1137 25.4477C33.1243 25.4483 33.1338 25.4488 33.142 25.4492C33.1505 25.4497 33.1577 25.4501 33.1636 25.4504L33.1774 25.4512L33.1814 25.4515L33.1827 25.4516C33.1828 25.4516 33.1834 25.4516 33.1373 26.1268C33.0913 26.802 33.0911 26.802 33.0913 26.802C33.1547 26.8059 33.2187 26.8016 33.281 26.7892C34.5741 26.5301 34.9931 25.4384 35.1196 24.6887C35.1859 24.2951 35.1886 23.9232 35.1764 23.6551C35.1702 23.5195 35.16 23.4066 35.1511 23.3258C35.1466 23.2854 35.1424 23.2528 35.1392 23.2292C35.1376 23.2174 35.1362 23.2078 35.1351 23.2006L35.1338 23.1917L35.1333 23.1885L35.133 23.1868C35.133 23.1866 35.133 23.1863 34.4372 23.2893L35.133 23.1868C35.1314 23.1767 35.1294 23.1657 35.1273 23.1556ZM35.0739 37.6555C35.0732 37.6545 35.0724 37.6535 35.0716 37.6525L35.0732 37.6545M24.8038 32.3533C24.8304 32.3872 24.8583 32.4203 24.8876 32.4524L24.8038 32.3533ZM24.4339 31.2529C24.4345 31.2639 24.4354 31.275 24.4363 31.2861L25.1381 31.2342L24.4344 31.2188C24.4341 31.2301 24.4339 31.2415 24.4339 31.2529Z" fill="#8E0532"/>
<path fill-rule="evenodd" clip-rule="evenodd" d="M29.5794 29.5775L29.5901 29.5812L29.6239 29.5929C29.6539 29.6033 29.6985 29.6187 29.7558 29.6383C29.8705 29.6773 30.0361 29.7332 30.2385 29.7996C30.6439 29.9326 31.194 30.107 31.7763 30.274C32.361 30.4416 32.9661 30.5983 33.4845 30.6989C33.7439 30.7492 33.9705 30.7833 34.1555 30.7989C34.3205 30.8129 34.4197 30.8091 34.4677 30.8033C35.1605 30.5982 35.8948 30.6581 36.5486 30.9682C36.5713 30.9789 36.5934 30.9909 36.6148 31.004C37.1265 31.3167 37.3831 31.7679 37.4515 32.2429C37.5154 32.6858 37.4132 33.1183 37.2887 33.459C37.1615 33.8074 36.9898 34.1161 36.8552 34.3324C36.787 34.442 36.7259 34.5317 36.6809 34.5953C36.6583 34.6271 36.6397 34.6525 36.6261 34.6709C36.6193 34.68 36.6136 34.6874 36.6095 34.693L36.6041 34.6998L36.6023 34.7022L36.6013 34.7035C36.6011 34.7037 36.601 34.7039 36.0371 34.2989C36.491 34.8161 36.4905 34.8165 36.4899 34.8169L36.4888 34.8178L36.4864 34.8198L36.4811 34.824C36.4772 34.8271 36.4727 34.8305 36.4677 34.8343C36.4578 34.8419 36.4455 34.851 36.431 34.8613C36.4019 34.882 36.3636 34.9078 36.3159 34.9372C36.2204 34.9959 36.0873 35.0687 35.9144 35.1432C35.5674 35.2929 35.0657 35.4471 34.3945 35.5113C33.049 35.6399 31.0676 35.4028 28.328 34.112C27.9789 33.9475 27.8347 33.5421 28.0058 33.2066C28.1769 32.8711 28.5986 32.7323 28.9477 32.8968C31.5075 34.103 33.2258 34.2631 34.2551 34.1647C34.7713 34.1154 35.1257 34.0001 35.3381 33.9086C35.4256 33.8708 35.4899 33.8367 35.5323 33.812C35.5629 33.7681 35.6028 33.7088 35.6471 33.6377C35.7531 33.4672 35.8752 33.244 35.9604 33.0107C36.0484 32.7697 36.0775 32.5709 36.057 32.4286C36.0423 32.3265 36.0039 32.2435 35.8885 32.1647C35.5544 32.0168 35.1955 31.9975 34.8566 32.1044C34.8331 32.1118 34.8093 32.118 34.785 32.123C34.5446 32.1726 34.2759 32.1676 34.032 32.147C33.7768 32.1254 33.4949 32.0814 33.2059 32.0254C32.6276 31.9132 31.9765 31.7436 31.3738 31.5707C30.7687 31.3972 30.2002 31.2169 29.7838 31.0804C29.5753 31.0119 29.4043 30.9543 29.285 30.9136C29.2253 30.8932 29.1785 30.8771 29.1465 30.866L29.1096 30.8532L29.0965 30.8486C29.0964 30.8486 29.0961 30.8485 29.3295 30.2348L29.0965 30.8486C28.7313 30.7203 28.5431 30.3317 28.6766 29.9807C28.8101 29.6297 29.2143 29.4492 29.5794 29.5775ZM36.0371 34.2989L36.491 34.8161C36.532 34.7829 36.5692 34.7449 36.6013 34.7035L36.0371 34.2989Z" fill="#8E0532"/>
<path fill-rule="evenodd" clip-rule="evenodd" d="M28.3793 36.4432C28.5167 36.0936 28.9229 35.9173 29.2866 36.0494C31.7161 36.9319 33.2584 37.0471 34.1517 36.9729C34.5975 36.9359 34.8849 36.8515 35.0452 36.7892C35.1257 36.7579 35.1757 36.7316 35.1988 36.7184C35.2051 36.7148 35.2095 36.7121 35.212 36.7105C35.5132 36.4909 35.9436 36.5391 36.1837 36.8233C36.4287 37.1135 36.3827 37.5396 36.0809 37.7751L35.6372 37.2498C36.0809 37.7751 36.0797 37.7761 36.0797 37.7761L36.0784 37.7771L36.0758 37.7791L36.07 37.7834C36.0659 37.7865 36.0614 37.7898 36.0565 37.7934C36.0466 37.8006 36.035 37.8088 36.0215 37.8178C35.9946 37.8359 35.9604 37.8575 35.9185 37.8815C35.8347 37.9294 35.7206 37.9864 35.573 38.0438C35.277 38.1588 34.852 38.2731 34.2729 38.3212C33.1164 38.4172 31.359 38.2488 28.789 37.3153C28.4253 37.1832 28.2419 36.7927 28.3793 36.4432Z" fill="#8E0532"/>
<path fill-rule="evenodd" clip-rule="evenodd" d="M34.4917 27.9C34.6468 27.5573 35.0615 27.4004 35.418 27.5495C36.5278 28.0136 37.0533 28.67 37.2303 29.3174C37.3141 29.6238 37.3099 29.8944 37.2837 30.0911C37.2707 30.1897 37.2518 30.2716 37.2347 30.333C37.2292 30.3527 37.2239 30.3704 37.2189 30.386C37.0561 31.126 36.5389 31.5651 36.12 31.8028C35.9048 31.9249 35.7011 32.0033 35.5515 32.0515C35.4758 32.0759 35.4119 32.0932 35.3643 32.1049C35.3405 32.1108 35.3206 32.1154 35.3052 32.1187C35.2976 32.1204 35.291 32.1217 35.2856 32.1228L35.2785 32.1242L35.2755 32.1248L35.2737 32.1251C35.2734 32.1252 35.2731 32.1253 35.1372 31.4614L35.2737 32.1251C34.8922 32.1973 34.5216 31.9587 34.4465 31.592C34.3717 31.2271 34.6174 30.873 34.9958 30.7986M35.8739 29.9859C35.8742 29.985 35.8745 29.9838 35.8749 29.9824C35.8777 29.9724 35.8831 29.9506 35.8872 29.9198C35.8955 29.8575 35.8974 29.7663 35.8687 29.6613C35.8207 29.4858 35.6463 29.1207 34.8563 28.7904C34.4998 28.6413 34.3366 28.2426 34.4917 27.9" fill="#8E0532"/>
</g>
<path d="M87.0379 23.6625L84.3642 24.77C84.1561 24.1034 83.8743 23.4933 83.5202 22.9396C83.1763 22.3859 82.7594 21.9142 82.2695 21.5246C81.7899 21.1247 81.243 20.8171 80.6275 20.6018C80.0128 20.3762 79.3403 20.2634 78.6109 20.2634C77.829 20.2634 77.1099 20.3915 76.4535 20.6479C75.8073 20.9042 75.2233 21.2529 74.702 21.6938C74.1916 22.1245 73.7433 22.632 73.3578 23.2165C72.9723 23.801 72.6489 24.4264 72.3882 25.093C72.1378 25.7492 71.9451 26.4311 71.81 27.1386C71.6844 27.8461 71.6223 28.5382 71.6223 29.215C71.6223 30.2917 71.7472 31.3632 71.9976 32.4296C72.2582 33.496 72.6642 34.4548 73.2169 35.3058C73.7798 36.1569 74.5041 36.8491 75.3904 37.3822C76.2761 37.9052 77.35 38.1667 78.6109 38.1667C79.2987 38.1667 79.8354 38.018 80.2215 37.7206C80.607 37.413 80.7998 36.8798 80.7998 36.121V29.3227H87.0065V40.32H85.2089L84.1145 38.582C83.1136 39.3305 82.0089 39.8842 80.7998 40.2431C79.601 40.5917 78.3766 40.766 77.1259 40.766C76.0205 40.766 74.9575 40.6327 73.9361 40.3661C72.9249 40.0996 71.9816 39.7202 71.1062 39.228C70.2307 38.7358 69.4335 38.141 68.7143 37.4438C68.0054 36.7465 67.3957 35.9724 66.8847 35.1212C66.3845 34.2702 65.9939 33.3473 65.7121 32.3527C65.4412 31.3479 65.3061 30.3019 65.3061 29.215C65.3061 28.1281 65.4412 27.0874 65.7121 26.0927C65.9939 25.0878 66.3845 24.1599 66.8847 23.3087C67.3957 22.4475 68.0054 21.6682 68.7143 20.9709C69.4335 20.2736 70.2307 19.6789 71.1062 19.1867C71.9816 18.6945 72.9249 18.3151 73.9361 18.0485C74.9575 17.7819 76.0205 17.6486 77.1259 17.6486C78.1889 17.6486 79.2257 17.7717 80.2369 18.0177C81.2583 18.2638 82.2067 18.6381 83.0822 19.1405C83.9582 19.6328 84.7344 20.2582 85.4119 21.0171C86.0997 21.7656 86.6421 22.6474 87.0379 23.6625ZM89.9619 32.7219C89.9619 31.9118 90.0292 31.071 90.1649 30.1994C90.3109 29.3278 90.5139 28.4562 90.7746 27.5847C91.0455 26.7131 91.3689 25.8517 91.7441 25.0007C92.1194 24.1496 92.5414 23.3344 93.0102 22.5551H96.8724C96.6118 23.3242 96.3768 24.1291 96.1686 24.9699C95.9707 25.8005 95.7985 26.6361 95.6525 27.477C95.5173 28.3075 95.4078 29.1228 95.3246 29.9225C95.2516 30.7223 95.2151 31.4657 95.2151 32.1527C95.2151 32.5527 95.2304 32.9833 95.2618 33.4447C95.3035 33.896 95.3713 34.3522 95.4648 34.8137C95.559 35.2648 95.689 35.7006 95.8561 36.121C96.0329 36.5414 96.257 36.9157 96.5279 37.2438C96.7994 37.5617 97.1273 37.818 97.5134 38.0129C97.9092 38.1975 98.3729 38.2897 98.9044 38.2897C99.4257 38.2897 99.8893 38.1769 100.296 37.9513C100.713 37.7155 101.078 37.413 101.39 37.0439C101.703 36.6645 101.969 36.2338 102.188 35.7519C102.407 35.2699 102.584 34.7778 102.719 34.2753C102.865 33.7626 102.97 33.2653 103.032 32.7834C103.105 32.2912 103.142 31.8503 103.142 31.4606V22.5551H108.426V40.32H106.394L103.971 36.1825C103.668 36.8696 103.298 37.4951 102.86 38.059C102.433 38.6127 101.943 39.0895 101.39 39.4894C100.838 39.8893 100.223 40.197 99.5454 40.4123C98.8788 40.6276 98.1538 40.7353 97.3726 40.7353C96.1219 40.7353 95.0326 40.5353 94.1046 40.1354C93.1773 39.7355 92.4057 39.1818 91.7909 38.4743C91.1761 37.7668 90.7176 36.9259 90.4153 35.9518C90.1131 34.9675 89.9619 33.8908 89.9619 32.7219ZM132.035 31.4606C132.035 32.7526 131.837 33.9626 131.44 35.0905C131.044 36.2184 130.471 37.2028 129.72 38.0436C128.97 38.8742 128.053 39.5304 126.969 40.0124C125.885 40.4943 124.655 40.7353 123.279 40.7353C122.58 40.7353 121.914 40.6327 121.278 40.4277C120.652 40.2226 120.074 39.9354 119.542 39.5663C119.021 39.1869 118.557 38.7358 118.151 38.2128C117.755 37.6899 117.442 37.1054 117.213 36.4594L114.867 40.32H112.835V16.0183H118.119V24.6777C118.745 23.8266 119.496 23.2011 120.371 22.8012C121.257 22.4013 122.226 22.2013 123.279 22.2013C124.655 22.2013 125.885 22.4423 126.969 22.9242C128.053 23.4062 128.97 24.0624 129.72 24.893C130.471 25.7236 131.044 26.7028 131.44 27.8308C131.837 28.9586 132.035 30.1686 132.035 31.4606ZM126.672 31.4606C126.672 31.0095 126.646 30.5326 126.594 30.0302C126.552 29.5175 126.473 29.0099 126.359 28.5075C126.244 28.0051 126.083 27.5231 125.875 27.0617C125.676 26.6003 125.421 26.1953 125.108 25.8466C124.796 25.4877 124.42 25.2057 123.983 25.0007C123.545 24.7853 123.029 24.6777 122.435 24.6777C121.893 24.6777 121.408 24.7904 120.981 25.016C120.564 25.2314 120.194 25.5236 119.871 25.8927C119.558 26.2619 119.292 26.6823 119.074 27.154C118.855 27.6257 118.677 28.1127 118.541 28.6152C118.406 29.1176 118.307 29.6149 118.245 30.1071C118.182 30.5993 118.151 31.0505 118.151 31.4606C118.151 31.922 118.172 32.4091 118.214 32.9218C118.265 33.4345 118.349 33.9472 118.463 34.4599C118.578 34.9624 118.735 35.4442 118.933 35.9057C119.141 36.3569 119.401 36.7619 119.714 37.1208C120.037 37.4694 120.418 37.7463 120.856 37.9513C121.304 38.1565 121.83 38.259 122.435 38.259C123.018 38.259 123.529 38.1565 123.967 37.9513C124.415 37.736 124.796 37.454 125.108 37.1054C125.421 36.7465 125.676 36.3364 125.875 35.8749C126.083 35.4032 126.244 34.9162 126.359 34.4137C126.473 33.9113 126.552 33.4088 126.594 32.9064C126.646 32.3937 126.672 31.9118 126.672 31.4606ZM140.993 18.2638C140.993 18.6535 140.915 19.0227 140.759 19.3712C140.613 19.7199 140.41 20.0224 140.149 20.2788C139.888 20.5351 139.581 20.7402 139.226 20.8939C138.872 21.0375 138.497 21.1093 138.1 21.1093C137.705 21.1093 137.329 21.0375 136.975 20.8939C136.631 20.7402 136.328 20.5351 136.068 20.2788C135.808 20.0224 135.599 19.7199 135.443 19.3712C135.297 19.0227 135.224 18.6535 135.224 18.2638C135.224 17.8742 135.297 17.5102 135.443 17.1718C135.599 16.8232 135.808 16.5207 136.068 16.2643C136.328 16.008 136.631 15.808 136.975 15.6645C137.329 15.5107 137.705 15.4337 138.1 15.4337C138.497 15.4337 138.872 15.5107 139.226 15.6645C139.581 15.808 139.888 16.008 140.149 16.2643C140.41 16.5207 140.613 16.8232 140.759 17.1718C140.915 17.5102 140.993 17.8742 140.993 18.2638ZM140.759 40.32H135.458V22.5705H140.759V40.32ZM163.663 30.1379C163.663 31.3376 163.512 32.5886 163.21 33.8908C162.918 35.1931 162.506 36.4696 161.975 37.7206C161.443 38.9716 160.807 40.1457 160.067 41.2428C159.327 42.3503 158.514 43.3039 157.629 44.1037L155.643 43.0424C155.924 42.5297 156.19 41.9555 156.44 41.3197C156.69 40.684 156.914 40.0124 157.112 39.3049C157.32 38.5871 157.503 37.8488 157.659 37.09C157.826 36.3312 157.962 35.5827 158.066 34.8444C158.181 34.0959 158.264 33.373 158.316 32.6757C158.378 31.9682 158.41 31.3119 158.41 30.707C158.41 30.307 158.394 29.8815 158.363 29.4303C158.332 28.9689 158.264 28.5126 158.16 28.0615C158.066 27.6 157.936 27.1591 157.769 26.7387C157.602 26.3183 157.378 25.9491 157.096 25.6313C156.825 25.3134 156.492 25.0571 156.096 24.8623C155.711 24.6674 155.252 24.57 154.72 24.57C154.199 24.57 153.735 24.6879 153.329 24.9237C152.922 25.1493 152.562 25.4518 152.25 25.8313C151.937 26.2004 151.666 26.6259 151.437 27.1078C151.218 27.5898 151.036 28.0871 150.89 28.5998C150.755 29.1022 150.655 29.5995 150.593 30.0917C150.53 30.5839 150.499 31.0249 150.499 31.4145V40.32H145.198V22.5551H147.231L149.654 26.6925C149.946 26.0055 150.311 25.3801 150.749 24.8161C151.187 24.2521 151.682 23.7702 152.234 23.3703C152.787 22.9704 153.397 22.6628 154.063 22.4475C154.741 22.2321 155.47 22.1245 156.252 22.1245C157.503 22.1245 158.592 22.3244 159.52 22.7243C160.448 23.1242 161.219 23.683 161.834 24.4008C162.449 25.1083 162.907 25.9543 163.21 26.9387C163.512 27.9128 163.663 28.9792 163.663 30.1379ZM176.249 40.32H171.496L164.93 22.5551H170.214L175.029 36.7055L179.704 22.5551H183.363L176.249 40.32ZM201.139 34.6445C201.139 35.4238 201.025 36.1159 200.796 36.7209C200.566 37.3259 200.253 37.8539 199.857 38.3051C199.461 38.746 198.992 39.1203 198.45 39.4279C197.908 39.7253 197.325 39.9663 196.699 40.1508C196.084 40.3354 195.438 40.4687 194.76 40.5507C194.083 40.6327 193.411 40.6737 192.744 40.6737C191.847 40.6737 191.055 40.6174 190.367 40.5046C189.679 40.3918 189.023 40.2123 188.397 39.9663C187.772 39.7099 187.146 39.3817 186.521 38.9819C185.906 38.582 185.218 38.0949 184.457 37.5207L187.537 35.0444C187.819 35.5673 188.189 36.0441 188.647 36.4748C189.116 36.8952 189.601 37.2592 190.102 37.5668C190.602 37.8745 191.087 38.1103 191.555 38.2743C192.025 38.4384 192.405 38.5205 192.697 38.5205C192.937 38.5205 193.208 38.5153 193.51 38.505C193.812 38.4846 194.119 38.4538 194.432 38.4128C194.745 38.3615 195.053 38.2897 195.355 38.1975C195.657 38.1052 195.923 37.9821 196.152 37.8283C196.392 37.6642 196.579 37.4643 196.715 37.2285C196.861 36.9823 196.934 36.6901 196.934 36.3518C196.934 36.0031 196.84 35.7006 196.652 35.4442C196.475 35.1777 196.24 34.947 195.948 34.7521C195.657 34.5573 195.323 34.3932 194.948 34.26C194.573 34.1267 194.192 34.0087 193.807 33.9062C193.432 33.8037 193.067 33.7165 192.713 33.6447C192.358 33.5627 192.05 33.4858 191.79 33.414C191.311 33.2807 190.805 33.1474 190.273 33.0141C189.742 32.8706 189.215 32.7116 188.694 32.5373C188.173 32.3527 187.673 32.1374 187.194 31.8913C186.724 31.6452 186.307 31.353 185.942 31.0146C185.588 30.6659 185.301 30.2609 185.083 29.7995C184.874 29.3278 184.77 28.7792 184.77 28.1538C184.77 27.0053 184.999 26.0466 185.458 25.2775C185.927 24.4982 186.542 23.8779 187.302 23.4164C188.064 22.9447 188.929 22.6115 189.898 22.4167C190.868 22.2219 191.852 22.1245 192.853 22.1245C193.541 22.1245 194.265 22.1962 195.026 22.3398C195.787 22.473 196.527 22.6782 197.247 22.955C197.966 23.2216 198.638 23.5497 199.263 23.9394C199.889 24.329 200.41 24.7751 200.827 25.2775L197.747 27.7692C197.517 27.154 197.215 26.6259 196.84 26.185C196.475 25.7441 196.074 25.3852 195.636 25.1083C195.209 24.8212 194.766 24.611 194.307 24.4777C193.859 24.3444 193.442 24.2777 193.056 24.2777C192.681 24.2777 192.259 24.2931 191.79 24.3239C191.321 24.3547 190.878 24.4418 190.461 24.5854C190.054 24.7289 189.705 24.9494 189.413 25.2467C189.132 25.5338 188.991 25.9338 188.991 26.4465C188.991 26.8156 189.074 27.1335 189.242 27.4001C189.419 27.6564 189.648 27.882 189.929 28.0768C190.21 28.2614 190.529 28.4204 190.883 28.5536C191.248 28.6767 191.618 28.7895 191.993 28.8921C192.369 28.9843 192.733 29.0663 193.088 29.1381C193.442 29.2099 193.76 29.2868 194.041 29.3688C194.521 29.5021 195.026 29.6406 195.558 29.7841C196.1 29.9174 196.632 30.0763 197.152 30.2609C197.674 30.4352 198.174 30.6455 198.653 30.8915C199.143 31.1274 199.57 31.4196 199.936 31.7683C200.301 32.1169 200.592 32.527 200.811 32.9987C201.03 33.4601 201.139 34.0087 201.139 34.6445Z" fill="#8E0532"/>
<path d="M209.697 38.6429C209.697 39.0325 209.624 39.4016 209.478 39.7503C209.333 40.0887 209.129 40.386 208.868 40.6424C208.608 40.8885 208.305 41.0833 207.962 41.2269C207.618 41.3807 207.248 41.4576 206.852 41.4576C206.455 41.4576 206.086 41.3807 205.741 41.2269C205.397 41.0833 205.095 40.8885 204.835 40.6424C204.575 40.386 204.371 40.0887 204.225 39.7503C204.079 39.4016 204.006 39.0325 204.006 38.6429C204.006 38.2635 204.079 37.9046 204.225 37.5662C204.371 37.2176 204.575 36.9202 204.835 36.6741C205.095 36.4178 205.397 36.2178 205.741 36.0742C206.086 35.9205 206.455 35.8435 206.852 35.8435C207.248 35.8435 207.618 35.9205 207.962 36.0742C208.305 36.2178 208.608 36.4178 208.868 36.6741C209.129 36.9202 209.333 37.2176 209.478 37.5662C209.624 37.9046 209.697 38.2635 209.697 38.6429ZM220.094 40.95H213.887V18.8016H224.956C225.999 18.8016 227.005 18.9246 227.974 19.1707C228.943 19.4065 229.798 19.7859 230.538 20.3089C231.289 20.8216 231.883 21.4881 232.32 22.3084C232.769 23.1287 232.993 24.1233 232.993 25.2923C232.993 26.2049 232.795 27.0662 232.398 27.8762C232.013 28.6761 231.492 29.3938 230.835 30.0296C230.189 30.6551 229.444 31.178 228.6 31.5984C227.755 32.0086 226.879 32.2803 225.973 32.4136C226.379 33.0904 226.801 33.7313 227.239 34.3363C227.688 34.9412 228.136 35.5103 228.584 36.0435C229.043 36.5665 229.496 37.0535 229.944 37.5047C230.392 37.9456 230.82 38.3506 231.226 38.7198C232.185 39.5811 233.134 40.3245 234.072 40.95H226.333C225.707 40.3655 225.113 39.6632 224.55 38.8428C224.071 38.1456 223.586 37.2842 223.096 36.2588C222.616 35.2232 222.247 34.0286 221.986 32.6751H220.094V40.95ZM226.692 25.2923C226.692 23.8055 226.322 22.7135 225.582 22.0162C224.853 21.3189 223.752 20.9702 222.283 20.9702H220.094V30.5833H222.283C223.065 30.5833 223.732 30.4398 224.285 30.1526C224.847 29.8553 225.306 29.4656 225.66 28.9837C226.014 28.4915 226.275 27.9275 226.442 27.2918C226.609 26.6561 226.692 25.9896 226.692 25.2923ZM243.593 18.8016C243.311 19.6321 243.067 20.4935 242.858 21.3855C242.65 22.2674 242.478 23.1543 242.342 24.0464C242.207 24.9283 242.102 25.7998 242.029 26.6612C241.967 27.5225 241.936 28.3377 241.936 29.1068C241.936 29.6707 241.936 30.3065 241.936 31.014C241.946 31.7112 241.988 32.4239 242.061 33.1519C242.145 33.88 242.275 34.5926 242.452 35.2898C242.629 35.9768 242.889 36.5921 243.233 37.1355C243.588 37.679 244.036 38.1148 244.578 38.4429C245.131 38.771 245.813 38.9351 246.626 38.9351C247.345 38.9351 247.961 38.8172 248.471 38.5813C248.992 38.3352 249.43 38.0071 249.784 37.597C250.149 37.1868 250.436 36.7151 250.644 36.1819C250.863 35.6487 251.03 35.0899 251.145 34.5054C251.27 33.921 251.348 33.3313 251.379 32.7366C251.421 32.1316 251.442 31.5574 251.442 31.014V18.8016H257.648V30.0603C257.648 31.6702 257.388 33.1673 256.867 34.5516C256.346 35.9358 255.611 37.1407 254.662 38.1661C253.714 39.1812 252.568 39.981 251.223 40.5654C249.878 41.1397 248.388 41.4268 246.752 41.4268C245.626 41.4268 244.578 41.2679 243.608 40.95C242.64 40.6424 241.748 40.2169 240.935 39.6734C240.132 39.1197 239.413 38.4686 238.777 37.72C238.152 36.9612 237.626 36.1358 237.199 35.2437C236.781 34.3516 236.464 33.4134 236.245 32.429C236.026 31.4344 235.927 30.4295 235.947 29.4144V29.1068C235.958 28.2864 236.042 27.4405 236.198 26.5689C236.354 25.6871 236.563 24.8052 236.823 23.9234C237.094 23.0416 237.417 22.17 237.792 21.3086C238.168 20.4371 238.585 19.6014 239.043 18.8016H243.593Z" fill="black"/>
</svg>
