<svg width="50" height="50" viewBox="0 0 50 50" fill="none" xmlns="http://www.w3.org/2000/svg">
<mask id="mask0_106_22" style="mask-type:luminance" maskUnits="userSpaceOnUse" x="0" y="0" width="50" height="50">
<path d="M50 0H0V50H50V0Z" fill="white"/>
</mask>
<g mask="url(#mask0_106_22)">
<path d="M25 0C11.193 0 0 11.193 0 25C0 38.807 11.193 50 25 50C38.807 50 50 38.807 50 25C50 11.193 38.807 0 25 0ZM39.955 14.642C39.966 14.642 39.976 14.6481 39.987 14.6486L26.037 28.599C25.572 29.0639 24.749 29.0649 24.284 28.598L10.328 14.642H39.955ZM9.355 15.5753C9.355 15.5677 9.35899 15.5616 9.35899 15.5545L18.842 25.0375L9.355 34.5246V15.5753ZM10.288 35.6186C10.245 35.6186 10.208 35.5999 10.166 35.5943L19.782 25.9785L23.343 29.539C23.827 30.0231 24.472 30.2893 25.16 30.2893C25.849 30.2893 26.493 30.0221 26.977 29.539L30.423 26.0935L39.948 35.6186H10.288ZM40.889 34.6782L31.364 25.1531L40.889 15.6285V34.6782Z" fill="#527D6B"/>
</g>
</svg>
