<svg width="50" height="50" viewBox="0 0 50 50" fill="none" xmlns="http://www.w3.org/2000/svg">
<path d="M31.514 12.4058H18.362C15.07 12.4058 12.393 15.0836 12.393 18.3749V31.648C12.393 34.9393 15.07 37.6172 18.362 37.6172H31.514C34.805 37.6172 37.483 34.9393 37.483 31.648V18.3749C37.483 15.0836 34.805 12.4058 31.514 12.4058ZM24.963 32.9591C20.502 32.9591 16.872 29.3682 16.872 24.9544C16.872 20.5407 20.502 16.9498 24.963 16.9498C29.424 16.9498 33.054 20.5407 33.054 24.9544C33.054 29.3682 29.424 32.9591 24.963 32.9591ZM33.198 18.526C32.146 18.526 31.294 17.6737 31.294 16.6223C31.294 15.5708 32.146 14.7186 33.198 14.7186C34.249 14.7186 35.101 15.5708 35.101 16.6223C35.101 17.6737 34.249 18.526 33.198 18.526Z" fill="#527D6B"/>
<path d="M25 0C11.193 0 0 11.193 0 25C0 38.807 11.193 50 25 50C38.807 50 50 38.807 50 25C50 11.193 38.807 0 25 0ZM40.436 31.648C40.436 36.5677 36.433 40.5697 31.514 40.5697H18.362C13.442 40.5697 9.44 36.5672 9.44 31.648V18.3748C9.44 13.4551 13.442 9.45307 18.362 9.45307H31.514C36.434 9.45307 40.436 13.4557 40.436 18.3748V31.648Z" fill="#527D6B"/>
<path d="M24.963 19.897C22.126 19.897 19.819 22.1657 19.819 24.9546C19.819 27.7434 22.126 30.0122 24.963 30.0122C27.8 30.0122 30.107 27.7434 30.107 24.9546C30.107 22.1657 27.8 19.897 24.963 19.897Z" fill="#527D6B"/>
</svg>
